<?xml version="1.0" encoding="utf-8"?>
<!-- Generator: Adobe Illustrator 19.1.0, SVG Export Plug-In . SVG Version: 6.00 Build 0)  -->
<svg version="1.1" id="Lager_1" xmlns="http://www.w3.org/2000/svg" xmlns:xlink="http://www.w3.org/1999/xlink" x="0px" y="0px"
	 viewBox="0 0 90 84" enable-background="new 0 0 90 84" xml:space="preserve">
<path fill="#FFD400" d="M39.8,24.7c1.6-0.7,3.2-1.2,4.8-1.5L44.5,1.3C38.9,1.4,33.7,3,29.2,5.8l9.7,19.3
	C39.2,24.9,39.5,24.8,39.8,24.7z"/>
<path fill="#FFD400" d="M36.7,26.3L24.2,9.7c-4,3.8-6.9,8.8-8.3,14.3l16.7,6.4C33.4,28.8,34.8,27.5,36.7,26.3z"/>
<path fill="#FFD400" d="M57.8,26.6c3.8,7.8-4.9,7.6-1.3,13.6c1.7,2.8,6.9,6.5,12.1,9.6c4-5.1,6.4-11.5,6.4-18.5
	c0-6.1-1.8-11.8-5-16.5L57,25.4C57.3,25.7,57.6,26.1,57.8,26.6z"/>
<path fill="#FFD400" d="M55,23.9l10.8-14c-4-3.9-9-6.6-14.6-7.8l-4.1,20.8C50.1,22.4,53,22.8,55,23.9z"/>
<path fill="#E3051F" d="M50.6,48.5C44.5,43,37.1,47,33.4,39.6c-1.3-2.6-1.8-4.9-1.5-6.8L15,30.7c0,0.2,0,0.4,0,0.6
	c0,16.6,13.4,30,30,30c4.6,0,8.9-1,12.8-2.9C55.8,54.8,53.3,50.9,50.6,48.5z M42.7,58.5c-1.8,0-3.3-1.5-3.3-3.3
	c0-1.8,1.5-3.3,3.3-3.3c1.8,0,3.3,1.5,3.3,3.3C45.9,57,44.5,58.5,42.7,58.5z"/>
<path fill="#E3051F" d="M14.8,68.5c-2.8-1.2-4.4-1.7-6-1.7c-1.7,0-2.8,0.6-2.8,1.5c0,2.8,9.7,2,9.7,8.6c0,3.6-3.1,5.7-7.3,5.7
	c-3.3,0-5-0.9-6.9-1.8v-4.1c2.7,1.8,4.4,2.4,6.5,2.4c1.8,0,2.8-0.6,2.8-1.7c0-3.1-9.7-2-9.7-8.7c0-3.3,2.9-5.4,7.3-5.4
	c2.1,0,4.1,0.4,6.5,1.5V68.5z"/>
<path fill="#E3051F" d="M27.7,72.4l8.4,10h-6l-7.5-8.8v8.8h-4.8V63.6h4.8v8.5h0.1l6-8.5h5.2L27.7,72.4z"/>
<path fill="#E3051F" d="M71.6,82.4h-4l-8.4-12.1v12.1h-4.8V63.6h4.4l8,11.5V63.6h4.8V82.4z"/>
<path fill="#E3051F" d="M89,82.4H74.7V63.6h14.1v3.4h-9.4V71h9v3.4h-9V79H89V82.4z"/>
<path fill="#E3051F" d="M2.6,57.3c0.8,0,1.2,0.6,1.2,1.3c0,0.5-0.2,0.8-0.6,1.1c0.4,0.2,0.5,0.8,1,2h-1c-0.4-0.9-0.5-1.8-1-1.8H1.9
	v1.8H1v-4.4H2.6z M1.9,59.1h0.5c0.3,0,0.5-0.1,0.5-0.5c0-0.3-0.2-0.5-0.5-0.5H1.9V59.1z"/>
<path fill="#E3051F" d="M7.4,61.7H4.7v-4.4h2.7v0.8H5.6v0.9h1.7v0.8H5.6v1.1h1.8V61.7z"/>
<path fill="#E3051F" d="M11.6,58.6c-0.5-0.3-0.9-0.4-1.4-0.4c-1,0-1.4,0.7-1.4,1.4c0,0.8,0.5,1.3,1.3,1.3c0.2,0,0.3,0,0.6-0.2v-0.5
	h-0.5v-0.8h1.5v1.8c-0.3,0.3-1,0.6-1.6,0.6c-1.3,0-2.2-0.9-2.2-2.2c0-1.3,0.9-2.2,2.2-2.2c0.6,0,1.1,0.1,1.5,0.4V58.6z"/>
<path fill="#E3051F" d="M13.4,61.7h-0.9v-4.4h0.9V61.7z"/>
<path fill="#E3051F" d="M16.2,61.8c-1.4,0-2.1-1.1-2.1-2.2c0-1.1,0.7-2.2,2.1-2.2c1.4,0,2.1,1.2,2.1,2.2
	C18.3,60.6,17.5,61.8,16.2,61.8z M16.2,58.2c-0.7,0-1.2,0.5-1.2,1.3c0,0.8,0.5,1.3,1.2,1.3c0.7,0,1.2-0.5,1.2-1.3
	C17.4,58.7,16.9,58.2,16.2,58.2z"/>
<path fill="#E3051F" d="M22.6,61.7h-0.8l-2-2.8v2.8h-0.9v-4.4h0.8l2,2.7v-2.7h0.9V61.7z"/>
<path fill="#E3051F" d="M53.8,82.4h-5.1l-1.6-3.7h-8.5l-1.4,3.7h-5l7.7-18.8h5.5L53.8,82.4z M42.7,68.1l-2.8,7.3h5.9L42.7,68.1z"/>
</svg>
